<svg xmlns="http://www.w3.org/2000/svg" width="243" height="57.028" viewBox="0 0 243 57.028"><path d="M85.91 37.9v-2.153h-7.175V45.98h2.444v-3.232h4.062v-2.153h-4.062V37.9h4.731zm6.36 8.211c3.117 0 5.4-2.226 5.4-5.226 0-3.043-2.283-5.269-5.4-5.269-3.145 0-5.444 2.284-5.444 5.27 0 2.941 2.299 5.225 5.444 5.225zm0-2.255c-1.704 0-2.942-1.296-2.942-2.97 0-1.705 1.238-3 2.942-3 1.675 0 2.898 1.28 2.898 3 0 1.689-1.223 2.97-2.898 2.97zm11.663 2.255c2.796 0 4.643-1.586 4.643-4.628v-5.736h-2.443v5.925c0 1.136-.642 2.257-2.2 2.257-1.544 0-2.17-1.121-2.17-2.257v-5.925H99.32v5.736c0 3.042 1.847 4.628 4.614 4.628zm14.003-10.364v6.026l-5.736-6.128h-1.353V45.98h2.385v-6.026l5.751 6.157h1.353V35.747h-2.4zm8.954 0h-4.162V45.98h4.162c3.232 0 5.386-2.051 5.386-5.124 0-3.072-2.154-5.109-5.386-5.109zm-.146 8.08h-1.573V37.9h1.573c1.937 0 3.044 1.194 3.044 2.985 0 1.762-1.107 2.942-3.044 2.942zm13.566 2.153h2.59l-4.511-10.233h-1.53l-4.555 10.233h2.59l.743-1.82h3.945l.728 1.82zm-2.707-6.753l1.207 2.882h-2.402l1.195-2.882zm13.378-3.48h-9.126V37.9h3.335v8.08h2.443V37.9h3.348v-2.153zm1.226 10.233h2.445V35.747h-2.445V45.98zm9.66.131c3.117 0 5.401-2.226 5.401-5.226 0-3.043-2.284-5.269-5.4-5.269-3.146 0-5.445 2.284-5.445 5.27 0 2.941 2.299 5.225 5.445 5.225zm0-2.255c-1.703 0-2.941-1.296-2.941-2.97 0-1.705 1.238-3 2.942-3 1.675 0 2.898 1.28 2.898 3 0 1.689-1.223 2.97-2.898 2.97zm14.276-8.109v6.026l-5.737-6.128h-1.352V45.98h2.385v-6.026l5.751 6.157h1.353V35.747h-2.4zM85.91 20.43v-2.153h-7.175V28.51h2.444v-3.232h4.062v-2.153h-4.062V20.43h4.731zm9.855 6.204c-1.033 0-1.237-.818-2.096-1.4 1.222-.61 1.935-1.73 1.935-3.158 0-2.243-1.687-3.8-4.265-3.8H87.6V28.51h2.444v-2.737h.962c1.049.043 1.456 2.868 4.047 2.868.742 0 1.12-.131 1.12-.131v-1.891c-.13.015-.276.015-.407.015zm-5.722-2.985V20.4h1.152c1.18 0 1.922.728 1.922 1.675 0 .918-.758 1.573-1.908 1.573h-1.166zm7.922 4.86h2.444V18.278h-2.444V28.51zm7.238-2.138v-1.938h4.192V22.28h-4.192v-1.85h4.746v-2.153h-7.19V28.51h7.263v-2.14h-4.819zm11.044-8.094h-4.162V28.51h4.162c3.234 0 5.387-2.051 5.387-5.124 0-3.073-2.153-5.11-5.387-5.11zm-.145 8.08h-1.573V20.43h1.573c1.937 0 3.043 1.194 3.043 2.985 0 1.762-1.106 2.942-3.043 2.942zm15.489.277c-1.032 0-1.236-.818-2.095-1.4 1.222-.61 1.935-1.73 1.935-3.158 0-2.243-1.687-3.8-4.265-3.8h-3.74V28.51h2.444v-2.737h.962c1.048.043 1.456 2.868 4.046 2.868.743 0 1.122-.131 1.122-.131v-1.891c-.132.015-.277.015-.409.015zm-5.721-2.985V20.4h1.15c1.181 0 1.924.728 1.924 1.675 0 .918-.758 1.573-1.908 1.573h-1.166zm7.921 4.86h2.445V18.278h-2.445V28.51zm9.704.132c1.804 0 2.897-.626 3.406-1.019l-1.062-1.935c-.22.146-1.005.655-2.242.655-1.85 0-3.058-1.136-3.058-2.956 0-1.806 1.208-2.942 3.058-2.942 1.237 0 2.023.51 2.242.656l1.062-1.936c-.51-.393-1.66-1.018-3.406-1.018-3.335 0-5.487 2.313-5.487 5.24 0 2.942 2.152 5.255 5.487 5.255zm11.982-10.364v4.062h-4.633v-4.062h-2.443V28.51h2.443v-4.018h4.633v4.018h2.444V18.277h-2.444zm15.082 0v6.026l-5.738-6.128h-1.352V28.51h2.386v-6.026l5.751 6.157h1.353V18.277h-2.4zm11.523 10.233h2.591l-4.513-10.233h-1.527l-4.557 10.233h2.591l.742-1.82h3.945l.728 1.82zm-2.707-6.754l1.208 2.883h-2.402l1.194-2.883zm10.455 6.885c2.796 0 4.643-1.586 4.643-4.628v-5.736h-2.444v5.925c0 1.136-.64 2.257-2.2 2.257-1.542 0-2.17-1.121-2.17-2.257v-5.925h-2.443v5.736c0 3.042 1.848 4.628 4.614 4.628zm18.006-.131l-.277-10.233h-1.499l-3.888 6.492-3.815-6.492h-1.512l-.277 10.233h2.4l.016-5.284 2.447 4.294h1.5l2.49-4.28.014 5.27h2.4zm9.048 0h2.59l-4.511-10.233h-1.53l-4.555 10.233h2.59l.743-1.82h3.945l.728 1.82zm-2.709-6.754l1.209 2.883h-2.402l1.193-2.883zm13.514-3.48v6.027l-5.738-6.128h-1.353V28.51h2.387v-6.026l5.751 6.157h1.353V18.277h-2.4zm11.888 0v6.027l-5.737-6.128h-1.353V28.51h2.385v-6.026l5.753 6.157h1.353V18.277h-2.4zM57.028 28.514c0-8.537-3.756-16.192-9.7-21.417v30.017c0 2.857-2.587 3.55-2.587 3.55l-34.933 9.36a28.395 28.395 0 0018.706 7.004c15.748 0 28.514-12.766 28.514-28.514zm-30.868 11.8V33.26l8.367-2.242v-4.703l-8.367 2.242V22.68l9.747-2.612v-4.703l-14.785 3.962v22.338l5.038-1.35zm21.06-33.31A28.396 28.396 0 0028.515 0C12.766 0 0 12.766 0 28.514c0 8.537 3.756 16.192 9.7 21.418V19.914c0-2.856 2.587-3.55 2.587-3.55l34.934-9.36z" fill="#004a7f"/><path d="M189.294 39.537v-.643h-4.445v7.07h.713v-2.806h3.33v-.653h-3.33v-2.968h3.732zm3.08 6.518c1.317 0 2.412-1.025 2.412-2.394 0-1.378-1.095-2.403-2.413-2.403-1.327 0-2.414 1.025-2.414 2.403 0 1.369 1.087 2.394 2.414 2.394zm0-.653c-.916 0-1.692-.754-1.692-1.74 0-.997.776-1.752 1.691-1.752.916 0 1.69.755 1.69 1.751 0 .987-.774 1.741-1.69 1.741zm5.883-4.154c-.865 0-1.418.492-1.6 1.055l-.039-.965h-.623v4.626h.713V43.38c.01-.665.452-1.45 1.428-1.45.171 0 .302.02.423.061l.06-.713a1.95 1.95 0 00-.362-.03zm8.248-1.711v-.643h-4.445v7.07h.713v-2.806h3.33v-.653h-3.33v-2.968h3.732zm3.19 1.71c-.866 0-1.42.493-1.599 1.056l-.04-.965h-.624v4.626h.713V43.38c.01-.665.453-1.45 1.428-1.45.171 0 .302.02.423.061l.06-.713a1.95 1.95 0 00-.362-.03zm5.17 2.314c0-1.379-.884-2.313-2.152-2.313-1.388 0-2.332 1.045-2.332 2.403 0 1.389 1.024 2.404 2.453 2.404.895 0 1.428-.311 1.79-.602l-.332-.524c-.311.252-.714.513-1.388.513-.996 0-1.73-.644-1.83-1.57h3.782s.01-.13.01-.311zm-2.132-1.7c.785 0 1.4.553 1.45 1.429h-3.09c.141-.856.775-1.43 1.64-1.43zm7.484 1.7c0-1.379-.885-2.313-2.152-2.313-1.389 0-2.333 1.045-2.333 2.403 0 1.389 1.025 2.404 2.453 2.404.896 0 1.429-.311 1.79-.602l-.331-.524c-.312.252-.714.513-1.388.513-.996 0-1.73-.644-1.832-1.57h3.783s.01-.13.01-.311zm-2.132-1.7c.784 0 1.398.553 1.45 1.429h-3.09c.14-.856.775-1.43 1.64-1.43zm7.021-3.078v3.359c-.332-.482-.935-.894-1.8-.894-1.258 0-2.224 1.025-2.224 2.403 0 1.379.986 2.404 2.244 2.404.865 0 1.468-.402 1.82-.934l.03.843h.623v-7.18h-.693zm-1.66 6.62c-.905 0-1.65-.745-1.65-1.752 0-1.006.745-1.75 1.65-1.75.996 0 1.67.744 1.67 1.75 0 1.017-.674 1.751-1.67 1.751zm5.975.652c1.318 0 2.413-1.025 2.413-2.394 0-1.378-1.095-2.403-2.413-2.403-1.327 0-2.414 1.025-2.414 2.403 0 1.369 1.087 2.394 2.414 2.394zm0-.653c-.915 0-1.69-.754-1.69-1.74 0-.997.775-1.752 1.69-1.752.916 0 1.69.755 1.69 1.751 0 .987-.774 1.741-1.69 1.741zm9.215-4.154c-.815 0-1.42.512-1.66 1.075-.292-.663-.894-1.075-1.719-1.075-.743 0-1.335.432-1.598.954l-.03-.864h-.585v4.626h.717l.01-2.745c.06-.635.532-1.319 1.375-1.319.825-.01 1.317.624 1.317 1.58v2.484h.713V43.43c0-.824.544-1.529 1.39-1.529.824 0 1.307.624 1.307 1.58v2.484h.713V43.39c0-1.287-.763-2.141-1.95-2.141zm3.822 4.807a.536.536 0 00.542-.553.542.542 0 00-.542-.552.545.545 0 00-.553.552c0 .312.231.553.553.553z" fill="#e6007e"/></svg>